{
  "title" : "",
  "description" : "",
  "author" : "",
  "width" : 1920.0,
  "height" : 1080.0,
  "version" : "0.5",
  "editRate" : 30,
  "authoringClientName" :  {
    "name" : "Camtasia Studio",
    "platform" : "Windows",
    "version" : "9.0"
  },
  "sourceBin" : [
    {
      "id" : 1,
      "src" : "C:\\Users\\Gonzalo\\Documents\\PROYECTOS\\UNITY\\SILENCIADOS\\OTROS\\CinematicaInicial\\FotografiaSharonYRose.png",
      "rect" : [0, 0, 1920, 1080],
      "lastMod" : "20210519T143039",
      "sourceTracks" : [
        {
          "range" : [0, 1],
          "type" : 1,
          "editRate" : 10000000,
          "trackRect" : [0, 0, 1920, 1080],
          "sampleRate" : 0,
          "bitDepth" : 24,
          "numChannels" : 0,
          "metaData" : ""
        }
      ]
    },
    {
      "id" : 2,
      "src" : "C:\\Users\\Gonzalo\\Documents\\PROYECTOS\\UNITY\\SILENCIADOS\\OTROS\\CinematicaInicial\\Hal (152kbit_Opus).mp3",
      "rect" : [0, 0, 0, 0],
      "lastMod" : "20210519T143233",
      "sourceTracks" : [
        {
          "range" : [0, 2333280000],
          "type" : 2,
          "editRate" : 10000000,
          "trackRect" : [0, 0, 0, 0],
          "sampleRate" : 48000,
          "bitDepth" : 0,
          "numChannels" : 2,
          "metaData" : ""
        }
      ]
    },
    {
      "id" : 3,
      "src" : "C:\\Users\\Gonzalo\\Documents\\PROYECTOS\\UNITY\\SILENCIADOS\\OTROS\\CinematicaInicial\\Euthanasia (152kbit_Opus).mp3",
      "rect" : [0, 0, 0, 0],
      "lastMod" : "20210519T143256",
      "sourceTracks" : [
        {
          "range" : [0, 952320000],
          "type" : 2,
          "editRate" : 10000000,
          "trackRect" : [0, 0, 0, 0],
          "sampleRate" : 48000,
          "bitDepth" : 0,
          "numChannels" : 2,
          "metaData" : ""
        }
      ]
    },
    {
      "id" : 4,
      "src" : "C:\\Users\\Gonzalo\\Documents\\PROYECTOS\\UNITY\\SILENCIADOS\\OTROS\\CinematicaInicial\\fondo.png",
      "rect" : [0, 0, 1920, 1080],
      "lastMod" : "20210519T143357",
      "sourceTracks" : [
        {
          "range" : [0, 1],
          "type" : 1,
          "editRate" : 10000000,
          "trackRect" : [0, 0, 1920, 1080],
          "sampleRate" : 0,
          "bitDepth" : 24,
          "numChannels" : 0,
          "metaData" : ""
        }
      ]
    },
    {
      "id" : 5,
      "src" : "C:\\Users\\Gonzalo\\Documents\\PROYECTOS\\UNITY\\SILENCIADOS\\OTROS\\CinematicaInicial\\Rec 05-19-21.trec",
      "rect" : [0, 0, 1920, 1080],
      "lastMod" : "20210519T150805",
      "sourceTracks" : [
        {
          "range" : [0, 6904],
          "type" : 0,
          "editRate" : 30,
          "trackRect" : [0, 0, 1920, 1080],
          "sampleRate" : 29,
          "bitDepth" : 0,
          "numChannels" : 0,
          "metaData" : "Rec 05-19-21.trec;"
        },
        {
          "range" : [0, 10151936],
          "type" : 2,
          "editRate" : 44100,
          "trackRect" : [0, 0, 0, 0],
          "sampleRate" : 44100,
          "bitDepth" : 16,
          "numChannels" : 2,
          "metaData" : ""
        }
      ]
    },
    {
      "id" : 6,
      "src" : "C:\\Users\\Gonzalo\\Documents\\PROYECTOS\\UNITY\\SILENCIADOS\\OTROS\\CinematicaInicial\\Cerrar puerta del coche (Efecto de Sonido) Car Door Closing Sound Effect (192kbit_AAC).mp3",
      "rect" : [0, 0, 0, 0],
      "lastMod" : "20210519T150159",
      "sourceTracks" : [
        {
          "range" : [0, 400717916],
          "type" : 2,
          "editRate" : 10000000,
          "trackRect" : [0, 0, 0, 0],
          "sampleRate" : 44100,
          "bitDepth" : 0,
          "numChannels" : 2,
          "metaData" : ""
        }
      ]
    },
    {
      "id" : 7,
      "src" : "C:\\Users\\Gonzalo\\Documents\\PROYECTOS\\UNITY\\SILENCIADOS\\OTROS\\CinematicaInicial\\Puerta - Efecto de Sonido (128kbit_AAC).mp3",
      "rect" : [0, 0, 0, 0],
      "lastMod" : "20210519T145700",
      "sourceTracks" : [
        {
          "range" : [0, 150987083],
          "type" : 2,
          "editRate" : 10000000,
          "trackRect" : [0, 0, 0, 0],
          "sampleRate" : 44100,
          "bitDepth" : 0,
          "numChannels" : 2,
          "metaData" : ""
        }
      ]
    },
    {
      "id" : 8,
      "src" : "C:\\Users\\Gonzalo\\Documents\\PROYECTOS\\UNITY\\SILENCIADOS\\OTROS\\CinematicaInicial\\sonidoPasosDesconocidos.wav",
      "rect" : [0, 0, 0, 0],
      "lastMod" : "20200406T153149",
      "sourceTracks" : [
        {
          "range" : [0, 5987302],
          "type" : 2,
          "editRate" : 10000000,
          "trackRect" : [0, 0, 0, 0],
          "sampleRate" : 44100,
          "bitDepth" : 16,
          "numChannels" : 1,
          "metaData" : ""
        }
      ]
    },
    {
      "id" : 9,
      "src" : "C:\\Users\\Gonzalo\\Documents\\PROYECTOS\\UNITY\\SILENCIADOS\\OTROS\\CinematicaInicial\\perroTriste.png",
      "rect" : [0, 0, 1920, 1080],
      "lastMod" : "20210519T160557",
      "sourceTracks" : [
        {
          "range" : [0, 1],
          "type" : 1,
          "editRate" : 10000000,
          "trackRect" : [0, 0, 1920, 1080],
          "sampleRate" : 0,
          "bitDepth" : 24,
          "numChannels" : 0,
          "metaData" : ""
        }
      ]
    },
    {
      "id" : 10,
      "src" : "C:\\Users\\Gonzalo\\Documents\\PROYECTOS\\UNITY\\SILENCIADOS\\OTROS\\CinematicaInicial\\saliendoCoche.png",
      "rect" : [0, 0, 1920, 1080],
      "lastMod" : "20210519T160505",
      "sourceTracks" : [
        {
          "range" : [0, 1],
          "type" : 1,
          "editRate" : 10000000,
          "trackRect" : [0, 0, 1920, 1080],
          "sampleRate" : 0,
          "bitDepth" : 24,
          "numChannels" : 0,
          "metaData" : ""
        }
      ]
    },
    {
      "id" : 11,
      "src" : "C:\\Users\\Gonzalo\\Downloads\\PERROS LLORANDO  Efectos de Sonidos HD\\PERROS LLORANDO  Efectos de Sonidos HD (192kbit_AAC).m4a",
      "rect" : [0, 0, 0, 0],
      "lastMod" : "20210519T161601",
      "sourceTracks" : [
        {
          "range" : [0, 1476559999],
          "type" : 2,
          "editRate" : 10000000,
          "trackRect" : [0, 0, 0, 0],
          "sampleRate" : 44100,
          "bitDepth" : 16,
          "numChannels" : 2,
          "metaData" : ""
        }
      ]
    },
    {
      "id" : 12,
      "src" : "C:\\Users\\Gonzalo\\Documents\\PROYECTOS\\UNITY\\SILENCIADOS\\OTROS\\CinematicaInicial\\06 Impacts ONE.wav",
      "rect" : [0, 0, 0, 0],
      "lastMod" : "20200614T164219",
      "sourceTracks" : [
        {
          "range" : [0, 96095919],
          "type" : 2,
          "editRate" : 10000000,
          "trackRect" : [0, 0, 0, 0],
          "sampleRate" : 44100,
          "bitDepth" : 16,
          "numChannels" : 2,
          "metaData" : ""
        }
      ]
    },
    {
      "id" : 13,
      "src" : "C:\\Users\\Gonzalo\\Documents\\PROYECTOS\\UNITY\\SILENCIADOS\\OTROS\\CinematicaInicial\\PlayStation 5 Boot Screen and User Interface Concept (192kbit_AAC).m4a",
      "rect" : [0, 0, 0, 0],
      "lastMod" : "20210519T113743",
      "sourceTracks" : [
        {
          "range" : [0, 655039998],
          "type" : 2,
          "editRate" : 10000000,
          "trackRect" : [0, 0, 0, 0],
          "sampleRate" : 44100,
          "bitDepth" : 16,
          "numChannels" : 2,
          "metaData" : ""
        }
      ]
    },
    {
      "id" : 14,
      "src" : "C:\\Users\\Gonzalo\\Documents\\PROYECTOS\\UNITY\\SILENCIADOS\\OTROS\\CinematicaInicial\\sonidoLluviaConduciendo.m4a",
      "rect" : [0, 0, 0, 0],
      "lastMod" : "20210520T100122",
      "sourceTracks" : [
        {
          "range" : [0, 2301794109],
          "type" : 2,
          "editRate" : 10000000,
          "trackRect" : [0, 0, 0, 0],
          "sampleRate" : 44100,
          "bitDepth" : 16,
          "numChannels" : 2,
          "metaData" : ""
        }
      ]
    }
  ],
  "timeline" : {
    "id" : 15,
    "sceneTrack" : {
      "scenes" : [
        {
          "duration" : 112.366666666667,
          "title" : "",
          "type" : "",
          "csml" : {
            "tracks" : [
              {
                "trackIndex" : 0,
                "medias" : [
                  {
                    "id" : 16,
                    "_type" : "IMFile",
                    "src" : 4,
                    "trackNumber" : 0,
                    "trimStartSum" : 0,
                    "attributes" : {
                      "ident" : "fondo"
                    },
                    "effects" : [

                    ],
                    "start" : 0,
                    "duration" : 3371,
                    "mediaStart" : 0,
                    "mediaDuration" : 1,
                    "scalar" : 1,
                    "metadata" : {
                      "WinSubProjectDisplayName" : "",
                      "clipSpeedAttribute" : false,
                      "default-scale0" : 1.0,
                      "default-scale1" : 1.0,
                      "default-translation0" : 0.0,
                      "default-translation1" : 0.0
                    },
                    "animationTracks" : {

                    }
                  }
                ]
              },
              {
                "trackIndex" : 1,
                "medias" : [
                  {
                    "id" : 17,
                    "_type" : "Callout",
                    "def" : {
                      "kind" : "remix",
                      "shape" : "text",
                      "style" : "basic",
                      "height" : 866.666666666253,
                      "width" : 1454.99999999977,
                      "word-wrap" : 1.0,
                      "horizontal-alignment" : "left",
                      "text" : "Zesimov Inc es una de las empresas más grandes del mundo... \rEs una de las principales proveedoras de productos tecnológicos y de sistemas de salud. No hay hogar en el planeta que no tenga algún producto con su logotipo.",
                      "vertical-alignment" : "top",
                      "font" : {
                        "color-blue" : 1.0,
                        "color-green" : 1.0,
                        "color-red" : 1.0,
                        "size" : 96.0,
                        "tracking" : 0.0,
                        "name" : "Montserrat",
                        "weight" : "Regular"
                      },
                      "textAttributes" : {
                        "type" : "textAttributeList",
                        "keyframes" : [
                          {
                            "time" : 0,
                            "value" : [{"name":"underline","rangeEnd":223,"rangeStart":0,"value":0,"valueType":"int"},{"name":"fontSize","rangeEnd":223,"rangeStart":0,"value":43,"valueType":"double"},{"name":"strikethrough","rangeEnd":223,"rangeStart":0,"value":0,"valueType":"int"},{"name":"fontItalic","rangeEnd":223,"rangeStart":0,"value":0,"valueType":"int"},{"name":"fontName","rangeEnd":223,"rangeStart":0,"value":"Courier New","valueType":"string"},{"name":"fontWeight","rangeEnd":223,"rangeStart":0,"value":400,"valueType":"int"},{"name":"fgColor","rangeEnd":223,"rangeStart":0,"value":"(255,255,255,255)","valueType":"color"}],
                            "duration" : 0
                          }
                        ]
                      }
                    },
                    "attributes" : {
                      "autoRotateText" : true
                    },
                    "parameters" : {
                      "translation0" : {
                        "type" : "double",
                        "defaultValue" : 29.1666666666461,
                        "keyframes" : [
                          {
                            "time" : 21,
                            "value" : 29.1666666666461,
                            "duration" : 88
                          }
                        ]
                      },
                      "translation1" : {
                        "type" : "double",
                        "defaultValue" : -1.49999999954205,
                        "keyframes" : [
                          {
                            "time" : 21,
                            "value" : 0.166666666975007,
                            "duration" : 88
                          }
                        ]
                      },
                      "opacity" : {
                        "type" : "double",
                        "defaultValue" : 0.0,
                        "keyframes" : [
                          {
                            "time" : 21,
                            "value" : 1.0,
                            "duration" : 88
                          }
                        ]
                      }
                    },
                    "effects" : [
                        {
                          "effectName" : "DropShadow",
                          "category" : "categoryVisualEffects",
                          "parameters" : {
                            "angle" : {
                              "type" : "double",
                              "defaultValue" : 5.49778714378214,
                              "uiHints" : {
                                "userInterfaceType" : 0,
                                "unitType" : 0
                              },
                              "keyframes" : [
                                {
                                  "time" : 21,
                                  "value" : 5.49778714378214,
                                  "duration" : 88
                                }
                              ]
                            },
                            "blur" : 10.0,
                            "color-alpha" : 1.0,
                            "color-blue" : 0.1216,
                            "color-green" : 0.1216,
                            "color-red" : 0.1216,
                            "enabled" : 1,
                            "offset" : 10.0,
                            "opacity" : 0.4
                          }
                        }
                    ],
                    "start" : 2479,
                    "duration" : 564,
                    "mediaStart" : 0,
                    "mediaDuration" : 564,
                    "scalar" : 1,
                    "metadata" : {
                      "WinSubProjectDisplayName" : "",
                      "clipSpeedAttribute" : false,
                      "default-HAlign" : "center",
                      "default-VAlign" : "center",
                      "default-opacity" : 1.0,
                      "default-scale0" : 1.0,
                      "default-scale1" : 1.0,
                      "default-translation0" : 0.0,
                      "default-translation1" : 0.0
                    },
                    "animationTracks" : {
                      "visual" : [
                        {
                          "range" : [ 21, 88]
                        }
                      ]
                    }
                  },
                  {
                    "id" : 18,
                    "_type" : "Callout",
                    "def" : {
                      "kind" : "remix",
                      "shape" : "text",
                      "style" : "basic",
                      "height" : 250.0,
                      "width" : 1408.00000000027,
                      "word-wrap" : 1.0,
                      "horizontal-alignment" : "center",
                      "text" : "La realidad es otra...",
                      "vertical-alignment" : "center",
                      "font" : {
                        "color-blue" : 1.0,
                        "color-green" : 1.0,
                        "color-red" : 1.0,
                        "size" : 96.0,
                        "tracking" : 0.0,
                        "name" : "Montserrat",
                        "weight" : "Regular"
                      },
                      "textAttributes" : {
                        "type" : "textAttributeList",
                        "keyframes" : [
                          {
                            "time" : 0,
                            "value" : [{"name":"fontName","rangeEnd":22,"rangeStart":0,"value":"Courier New","valueType":"string"},{"name":"strikethrough","rangeEnd":22,"rangeStart":0,"value":0,"valueType":"int"},{"name":"underline","rangeEnd":22,"rangeStart":0,"value":0,"valueType":"int"},{"name":"fontSize","rangeEnd":22,"rangeStart":0,"value":96,"valueType":"double"},{"name":"fontWeight","rangeEnd":22,"rangeStart":0,"value":400,"valueType":"int"},{"name":"fontItalic","rangeEnd":22,"rangeStart":0,"value":0,"valueType":"int"},{"name":"fgColor","rangeEnd":22,"rangeStart":0,"value":"(255,255,255,255)","valueType":"color"}],
                            "duration" : 0
                          }
                        ]
                      }
                    },
                    "attributes" : {
                      "autoRotateText" : true
                    },
                    "parameters" : {
                      "translation0" : {
                        "type" : "double",
                        "defaultValue" : -1.40602196552209e-10,
                        "keyframes" : [
                          {
                            "time" : 96,
                            "value" : -1.40602196552209e-10,
                            "duration" : 30
                          }
                        ]
                      },
                      "opacity" : {
                        "type" : "double",
                        "defaultValue" : 1.0,
                        "keyframes" : [
                          {
                            "time" : 96,
                            "value" : 0.0,
                            "duration" : 30
                          }
                        ]
                      }
                    },
                    "effects" : [
                        {
                          "effectName" : "DropShadow",
                          "category" : "categoryVisualEffects",
                          "parameters" : {
                            "angle" : {
                              "type" : "double",
                              "defaultValue" : 5.49778714378214,
                              "uiHints" : {
                                "userInterfaceType" : 0,
                                "unitType" : 0
                              },
                              "keyframes" : [
                                {
                                  "time" : 96,
                                  "value" : 5.49778714378214,
                                  "duration" : 30
                                }
                              ]
                            },
                            "blur" : 10.0,
                            "color-alpha" : 1.0,
                            "color-blue" : 0.1216,
                            "color-green" : 0.1216,
                            "color-red" : 0.1216,
                            "enabled" : 1,
                            "offset" : 10.0,
                            "opacity" : 0.4
                          }
                        }
                    ],
                    "start" : 3043,
                    "duration" : 150,
                    "mediaStart" : 0,
                    "mediaDuration" : 150,
                    "scalar" : 1,
                    "metadata" : {
                      "WinSubProjectDisplayName" : "",
                      "clipSpeedAttribute" : false,
                      "default-HAlign" : "center",
                      "default-VAlign" : "center",
                      "default-opacity" : 1.0,
                      "default-translation0" : 351.0
                    },
                    "animationTracks" : {
                      "visual" : [
                        {
                          "range" : [ 96, 30]
                        }
                      ]
                    }
                  }
                ]
              },
              {
                "trackIndex" : 2,
                "medias" : [
                  {
                    "id" : 19,
                    "_type" : "AMFile",
                    "src" : 2,
                    "trackNumber" : 0,
                    "attributes" : {
                      "ident" : "Hal (152kbit_Opus)",
                      "sampleRate" : 48000,
                      "bitDepth" : 0,
                      "gain" : 1.0,
                      "mixToMono" : false
                    },
                      "channelNumber" : "0,1",
                    "parameters" : {
                      "volume" : {
                        "type" : "double",
                        "keyframes" : [
                          {
                            "time" : -1,
                            "value" : 1.0,
                            "duration" : 0
                          },
                          {
                            "time" : 0,
                            "value" : 0.0,
                            "duration" : 0
                          },
                          {
                            "time" : 90,
                            "value" : 0.741758241758242,
                            "duration" : 0
                          },
                          {
                            "time" : 2362,
                            "value" : 0.741758241758242,
                            "duration" : 0
                          },
                          {
                            "time" : 2438,
                            "value" : 0.0,
                            "duration" : 0
                          },
                          {
                            "time" : 2439,
                            "value" : 0.741758241758242,
                            "duration" : 0
                          },
                          {
                            "time" : 2544,
                            "value" : 0.741758241758242,
                            "duration" : 0
                          },
                          {
                            "time" : 2634,
                            "value" : 0.0,
                            "duration" : 0
                          },
                          {
                            "time" : 2635,
                            "value" : 0.741758241758242,
                            "duration" : 0
                          }
                        ]
                      }
                    },
                    "effects" : [

                    ],
                    "start" : 0,
                    "duration" : 2438,
                    "mediaStart" : 0,
                    "mediaDuration" : 2438,
                    "scalar" : 1,
                    "metadata" : {
                      "WinSubProjectDisplayName" : "",
                      "clipSpeedAttribute" : false
                    },
                    "animationTracks" : {

                    }
                  },
                  {
                    "id" : 20,
                    "_type" : "Callout",
                    "def" : {
                      "kind" : "remix",
                      "shape" : "text",
                      "style" : "basic",
                      "height" : 866.666666666253,
                      "width" : 1454.99999999977,
                      "word-wrap" : 1.0,
                      "horizontal-alignment" : "left",
                      "text" : "Zesimov Inc es una de las empresas más grandes del mundo... \rEs una de las principales proveedoras de productos tecnológicos y de sistemas de salud. No hay hogar en el planeta que no tenga algún producto con su logotipo.\r\rZesimov es también un apoyo para las personas necesitadas, ONGs, y países tercermundistas. Teniendo miles de centros de ayuda por todo el mundo.",
                      "vertical-alignment" : "top",
                      "font" : {
                        "color-blue" : 1.0,
                        "color-green" : 1.0,
                        "color-red" : 1.0,
                        "size" : 96.0,
                        "tracking" : 0.0,
                        "name" : "Montserrat",
                        "weight" : "Regular"
                      },
                      "textAttributes" : {
                        "type" : "textAttributeList",
                        "keyframes" : [
                          {
                            "time" : 0,
                            "value" : [{"name":"fgColor","rangeEnd":371,"rangeStart":0,"value":"(255,255,255,255)","valueType":"color"},{"name":"fontName","rangeEnd":371,"rangeStart":0,"value":"Courier New","valueType":"string"},{"name":"fontWeight","rangeEnd":371,"rangeStart":0,"value":400,"valueType":"int"},{"name":"fontSize","rangeEnd":371,"rangeStart":0,"value":43,"valueType":"double"},{"name":"underline","rangeEnd":371,"rangeStart":0,"value":0,"valueType":"int"},{"name":"strikethrough","rangeEnd":371,"rangeStart":0,"value":0,"valueType":"int"},{"name":"fontItalic","rangeEnd":371,"rangeStart":0,"value":0,"valueType":"int"}],
                            "duration" : 0
                          }
                        ]
                      }
                    },
                    "attributes" : {
                      "autoRotateText" : true
                    },
                    "parameters" : {
                      "translation0" : {
                        "type" : "double",
                        "defaultValue" : 29.1666666666461,
                        "keyframes" : [
                          {
                            "time" : 21,
                            "value" : 29.1666666666461,
                            "duration" : 88
                          }
                        ]
                      },
                      "translation1" : {
                        "type" : "double",
                        "defaultValue" : -1.49999999954205,
                        "keyframes" : [
                          {
                            "time" : 21,
                            "value" : 0.166666666975007,
                            "duration" : 88
                          }
                        ]
                      },
                      "opacity" : {
                        "type" : "double",
                        "defaultValue" : 0.0,
                        "keyframes" : [
                          {
                            "time" : 21,
                            "value" : 1.0,
                            "duration" : 88
                          }
                        ]
                      }
                    },
                    "effects" : [
                        {
                          "effectName" : "DropShadow",
                          "category" : "categoryVisualEffects",
                          "parameters" : {
                            "angle" : {
                              "type" : "double",
                              "defaultValue" : 5.49778714378214,
                              "uiHints" : {
                                "userInterfaceType" : 0,
                                "unitType" : 0
                              },
                              "keyframes" : [
                                {
                                  "time" : 21,
                                  "value" : 5.49778714378214,
                                  "duration" : 88
                                }
                              ]
                            },
                            "blur" : 10.0,
                            "color-alpha" : 1.0,
                            "color-blue" : 0.1216,
                            "color-green" : 0.1216,
                            "color-red" : 0.1216,
                            "enabled" : 1,
                            "offset" : 10.0,
                            "opacity" : 0.4
                          }
                        }
                    ],
                    "start" : 2682,
                    "duration" : 361,
                    "mediaStart" : 0,
                    "mediaDuration" : 361,
                    "scalar" : 1,
                    "metadata" : {
                      "WinSubProjectDisplayName" : "",
                      "clipSpeedAttribute" : false,
                      "default-HAlign" : "center",
                      "default-VAlign" : "center",
                      "default-opacity" : 1.0,
                      "default-scale0" : 1.0,
                      "default-scale1" : 1.0,
                      "default-translation0" : 0.0,
                      "default-translation1" : 0.0
                    },
                    "animationTracks" : {
                      "visual" : [
                        {
                          "range" : [ 21, 88]
                        }
                      ]
                    }
                  },
                  {
                    "id" : 21,
                    "_type" : "AMFile",
                    "src" : 12,
                    "trackNumber" : 0,
                    "attributes" : {
                      "ident" : "06 Impacts ONE",
                      "sampleRate" : 44100,
                      "bitDepth" : 16,
                      "gain" : 1.0,
                      "mixToMono" : false
                    },
                      "channelNumber" : "0,1",
                    "parameters" : {
                      "volume" : 2.75510204081633
                    },
                    "effects" : [

                    ],
                    "start" : 3043,
                    "duration" : 143,
                    "mediaStart" : 7,
                    "mediaDuration" : 143,
                    "scalar" : 1,
                    "metadata" : {
                      "WinSubProjectDisplayName" : "",
                      "clipSpeedAttribute" : false
                    },
                    "animationTracks" : {

                    }
                  }
                ]
              },
              {
                "trackIndex" : 3,
                "medias" : [
                  {
                    "id" : 22,
                    "_type" : "IMFile",
                    "src" : 1,
                    "trackNumber" : 0,
                    "trimStartSum" : 0,
                    "attributes" : {
                      "ident" : "FotografiaSharonYRose"
                    },
                    "parameters" : {
                      "translation0" : {
                        "type" : "double",
                        "defaultValue" : 0.0,
                        "keyframes" : [
                          {
                            "time" : 24,
                            "value" : 0.0,
                            "duration" : 277
                          }
                        ]
                      },
                      "translation1" : {
                        "type" : "double",
                        "defaultValue" : 0.0,
                        "keyframes" : [
                          {
                            "time" : 24,
                            "value" : 0.0,
                            "duration" : 277
                          }
                        ]
                      },
                      "opacity" : {
                        "type" : "double",
                        "defaultValue" : 0.0,
                        "keyframes" : [
                          {
                            "time" : 24,
                            "value" : 0.2,
                            "duration" : 277
                          },
                          {
                            "time" : 1025,
                            "value" : 0.0,
                            "duration" : 90
                          }
                        ]
                      }
                    },
                    "effects" : [

                    ],
                    "start" : 122,
                    "duration" : 1126,
                    "mediaStart" : 0,
                    "mediaDuration" : 1,
                    "scalar" : 1,
                    "metadata" : {
                      "WinSubProjectDisplayName" : "",
                      "clipSpeedAttribute" : false,
                      "default-opacity" : 1.0,
                      "default-translation0" : 0.0,
                      "default-translation1" : 0.0
                    },
                    "animationTracks" : {
                      "visual" : [
                        {
                          "range" : [ 24, 277]
                        },
                        {
                          "range" : [ 1025, 90]
                        }
                      ]
                    }
                  },
                  {
                    "id" : 23,
                    "_type" : "Callout",
                    "def" : {
                      "kind" : "remix",
                      "shape" : "text",
                      "style" : "basic",
                      "height" : 866.666666666253,
                      "width" : 1454.99999999977,
                      "word-wrap" : 1.0,
                      "horizontal-alignment" : "left",
                      "text" : "Zesimov Inc es una de las empresas más grandes del mundo... \rEs una de las principales proveedoras de productos tecnológicos y de sistemas de salud. No hay hogar en el planeta que no tenga algún producto con su logotipo.\r\rZesimov es también un apoyo para las personas necesitadas, ONGs, y países tercermundistas. Teniendo miles de centros de ayuda por todo el mundo.\r\rPero esto es solo la imagen que quiere dar cara al público...",
                      "vertical-alignment" : "top",
                      "font" : {
                        "color-blue" : 1.0,
                        "color-green" : 1.0,
                        "color-red" : 1.0,
                        "size" : 96.0,
                        "tracking" : 0.0,
                        "name" : "Montserrat",
                        "weight" : "Regular"
                      },
                      "textAttributes" : {
                        "type" : "textAttributeList",
                        "keyframes" : [
                          {
                            "time" : 0,
                            "value" : [{"name":"fontSize","rangeEnd":435,"rangeStart":0,"value":43,"valueType":"double"},{"name":"fgColor","rangeEnd":435,"rangeStart":0,"value":"(255,255,255,255)","valueType":"color"},{"name":"fontItalic","rangeEnd":435,"rangeStart":0,"value":0,"valueType":"int"},{"name":"underline","rangeEnd":435,"rangeStart":0,"value":0,"valueType":"int"},{"name":"strikethrough","rangeEnd":435,"rangeStart":0,"value":0,"valueType":"int"},{"name":"fontName","rangeEnd":435,"rangeStart":0,"value":"Courier New","valueType":"string"},{"name":"fontWeight","rangeEnd":435,"rangeStart":0,"value":400,"valueType":"int"}],
                            "duration" : 0
                          }
                        ]
                      }
                    },
                    "attributes" : {
                      "autoRotateText" : true
                    },
                    "parameters" : {
                      "translation0" : {
                        "type" : "double",
                        "defaultValue" : 29.1666666666461,
                        "keyframes" : [
                          {
                            "time" : 21,
                            "value" : 29.1666666666461,
                            "duration" : 88
                          }
                        ]
                      },
                      "translation1" : {
                        "type" : "double",
                        "defaultValue" : -1.49999999954205,
                        "keyframes" : [
                          {
                            "time" : 21,
                            "value" : 0.166666666975007,
                            "duration" : 88
                          }
                        ]
                      },
                      "opacity" : {
                        "type" : "double",
                        "defaultValue" : 0.0,
                        "keyframes" : [
                          {
                            "time" : 21,
                            "value" : 1.0,
                            "duration" : 88
                          }
                        ]
                      }
                    },
                    "effects" : [
                        {
                          "effectName" : "DropShadow",
                          "category" : "categoryVisualEffects",
                          "parameters" : {
                            "angle" : {
                              "type" : "double",
                              "defaultValue" : 5.49778714378214,
                              "uiHints" : {
                                "userInterfaceType" : 0,
                                "unitType" : 0
                              },
                              "keyframes" : [
                                {
                                  "time" : 21,
                                  "value" : 5.49778714378214,
                                  "duration" : 88
                                }
                              ]
                            },
                            "blur" : 10.0,
                            "color-alpha" : 1.0,
                            "color-blue" : 0.1216,
                            "color-green" : 0.1216,
                            "color-red" : 0.1216,
                            "enabled" : 1,
                            "offset" : 10.0,
                            "opacity" : 0.4
                          }
                        }
                    ],
                    "start" : 2898,
                    "duration" : 145,
                    "mediaStart" : 0,
                    "mediaDuration" : 145,
                    "scalar" : 1,
                    "metadata" : {
                      "WinSubProjectDisplayName" : "",
                      "clipSpeedAttribute" : false,
                      "default-HAlign" : "center",
                      "default-VAlign" : "center",
                      "default-opacity" : 1.0,
                      "default-scale0" : 1.0,
                      "default-scale1" : 1.0,
                      "default-text-attributes" : "[{\"name\":\"underline\",\"rangeEnd\":428,\"rangeStart\":0,\"value\":0,\"valueType\":\"int\"},{\"name\":\"fontName\",\"rangeEnd\":428,\"rangeStart\":0,\"value\":\"Courier New\",\"valueType\":\"string\"},{\"name\":\"fgColor\",\"rangeEnd\":428,\"rangeStart\":0,\"value\":\"(255,255,255,255)\",\"valueType\":\"color\"},{\"name\":\"fontWeight\",\"rangeEnd\":428,\"rangeStart\":0,\"value\":400,\"valueType\":\"int\"},{\"name\":\"fontItalic\",\"rangeEnd\":428,\"rangeStart\":0,\"value\":0,\"valueType\":\"int\"},{\"name\":\"strikethrough\",\"rangeEnd\":428,\"rangeStart\":0,\"value\":0,\"valueType\":\"int\"},{\"name\":\"fontSize\",\"rangeEnd\":428,\"rangeStart\":0,\"value\":43,\"valueType\":\"double\"}]",
                      "default-translation0" : 0.0,
                      "default-translation1" : 0.0
                    },
                    "animationTracks" : {
                      "visual" : [
                        {
                          "range" : [ 21, 88]
                        }
                      ]
                    }
                  }
                ]
              },
              {
                "trackIndex" : 4,
                "medias" : [
                  {
                    "id" : 24,
                    "_type" : "Callout",
                    "def" : {
                      "kind" : "remix",
                      "shape" : "text",
                      "style" : "basic",
                      "height" : 866.666666666253,
                      "width" : 1454.99999999977,
                      "word-wrap" : 1.0,
                      "horizontal-alignment" : "left",
                      "text" : "Había terminado de escribir mi reporte sobre los asesinatos de Mebil cuando me percaté de que Sharon, mi hermana, aún no había venido a cenar.",
                      "vertical-alignment" : "top",
                      "font" : {
                        "color-blue" : 1.0,
                        "color-green" : 1.0,
                        "color-red" : 1.0,
                        "size" : 96.0,
                        "tracking" : 0.0,
                        "name" : "Montserrat",
                        "weight" : "Regular"
                      },
                      "textAttributes" : {
                        "type" : "textAttributeList",
                        "keyframes" : [
                          {
                            "time" : 0,
                            "value" : [{"name":"fontItalic","rangeEnd":146,"rangeStart":0,"value":0,"valueType":"int"},{"name":"fontWeight","rangeEnd":146,"rangeStart":0,"value":400,"valueType":"int"},{"name":"strikethrough","rangeEnd":146,"rangeStart":0,"value":0,"valueType":"int"},{"name":"fontSize","rangeEnd":146,"rangeStart":0,"value":43,"valueType":"double"},{"name":"fgColor","rangeEnd":146,"rangeStart":0,"value":"(255,255,255,255)","valueType":"color"},{"name":"underline","rangeEnd":146,"rangeStart":0,"value":0,"valueType":"int"},{"name":"fontName","rangeEnd":146,"rangeStart":0,"value":"Manrope","valueType":"string"}],
                            "duration" : 0
                          }
                        ]
                      }
                    },
                    "attributes" : {
                      "autoRotateText" : true
                    },
                    "parameters" : {
                      "translation0" : {
                        "type" : "double",
                        "defaultValue" : 29.1666666666461,
                        "keyframes" : [
                          {
                            "time" : 21,
                            "value" : 29.1666666666461,
                            "duration" : 88
                          }
                        ]
                      },
                      "translation1" : {
                        "type" : "double",
                        "defaultValue" : -1.49999999954205,
                        "keyframes" : [
                          {
                            "time" : 21,
                            "value" : -1.49999999954205,
                            "duration" : 88
                          }
                        ]
                      },
                      "opacity" : {
                        "type" : "double",
                        "defaultValue" : 0.0,
                        "keyframes" : [
                          {
                            "time" : 21,
                            "value" : 1.0,
                            "duration" : 88
                          },
                          {
                            "time" : 817,
                            "value" : 0.0,
                            "duration" : 30
                          }
                        ]
                      }
                    },
                    "effects" : [
                        {
                          "effectName" : "DropShadow",
                          "category" : "categoryVisualEffects",
                          "parameters" : {
                            "angle" : {
                              "type" : "double",
                              "defaultValue" : 5.49778714378214,
                              "uiHints" : {
                                "userInterfaceType" : 0,
                                "unitType" : 0
                              },
                              "keyframes" : [
                                {
                                  "time" : 21,
                                  "value" : 5.49778714378214,
                                  "duration" : 88
                                }
                              ]
                            },
                            "blur" : 10.0,
                            "color-alpha" : 1.0,
                            "color-blue" : 0.1216,
                            "color-green" : 0.1216,
                            "color-red" : 0.1216,
                            "enabled" : 1,
                            "offset" : 10.0,
                            "opacity" : 0.4
                          }
                        }
                    ],
                    "start" : 228,
                    "duration" : 877,
                    "mediaStart" : 0,
                    "mediaDuration" : 877,
                    "scalar" : 1,
                    "metadata" : {
                      "WinSubProjectDisplayName" : "",
                      "clipSpeedAttribute" : false,
                      "default-HAlign" : "center",
                      "default-VAlign" : "center",
                      "default-opacity" : 1.0,
                      "default-translation0" : 0.0,
                      "default-translation1" : 0.0
                    },
                    "animationTracks" : {
                      "visual" : [
                        {
                          "range" : [ 21, 88]
                        },
                        {
                          "range" : [ 817, 30]
                        }
                      ]
                    }
                  },
                  {
                    "id" : 25,
                    "_type" : "AMFile",
                    "src" : 6,
                    "trackNumber" : 0,
                    "attributes" : {
                      "ident" : "Cerrar puerta del coche (Efecto de Sonido) Car Door Closing Sound Effect (192kbit_AAC)",
                      "sampleRate" : 44100,
                      "bitDepth" : 0,
                      "gain" : 1.0,
                      "mixToMono" : false
                    },
                      "channelNumber" : "0,1",
                    "parameters" : {
                      "volume" : 2.3469387755102
                    },
                    "effects" : [

                    ],
                    "start" : 1283,
                    "duration" : 37,
                    "mediaStart" : 59,
                    "mediaDuration" : 37,
                    "scalar" : 1,
                    "metadata" : {
                      "WinSubProjectDisplayName" : "",
                      "clipSpeedAttribute" : false
                    },
                    "animationTracks" : {

                    }
                  },
                  {
                    "id" : 26,
                    "_type" : "AMFile",
                    "src" : 8,
                    "trackNumber" : 0,
                    "attributes" : {
                      "ident" : "sonidoPasosDesconocidos",
                      "sampleRate" : 44100,
                      "bitDepth" : 16,
                      "gain" : 1.0,
                      "mixToMono" : false
                    },
                      "channelNumber" : "0",
                    "effects" : [

                    ],
                    "start" : 1320,
                    "duration" : 18,
                    "mediaStart" : 0,
                    "mediaDuration" : 18,
                    "scalar" : 1,
                    "metadata" : {
                      "WinSubProjectDisplayName" : "",
                      "clipSpeedAttribute" : false
                    },
                    "animationTracks" : {

                    }
                  },
                  {
                    "id" : 27,
                    "_type" : "AMFile",
                    "src" : 8,
                    "trackNumber" : 0,
                    "attributes" : {
                      "ident" : "sonidoPasosDesconocidos",
                      "sampleRate" : 44100,
                      "bitDepth" : 16,
                      "gain" : 1.0,
                      "mixToMono" : false
                    },
                      "channelNumber" : "0",
                    "effects" : [

                    ],
                    "start" : 1338,
                    "duration" : 18,
                    "mediaStart" : 0,
                    "mediaDuration" : 18,
                    "scalar" : 1,
                    "metadata" : {
                      "WinSubProjectDisplayName" : "",
                      "clipSpeedAttribute" : false
                    },
                    "animationTracks" : {

                    }
                  },
                  {
                    "id" : 28,
                    "_type" : "AMFile",
                    "src" : 8,
                    "trackNumber" : 0,
                    "attributes" : {
                      "ident" : "sonidoPasosDesconocidos",
                      "sampleRate" : 44100,
                      "bitDepth" : 16,
                      "gain" : 1.0,
                      "mixToMono" : false
                    },
                      "channelNumber" : "0",
                    "effects" : [

                    ],
                    "start" : 1356,
                    "duration" : 18,
                    "mediaStart" : 0,
                    "mediaDuration" : 18,
                    "scalar" : 1,
                    "metadata" : {
                      "WinSubProjectDisplayName" : "",
                      "clipSpeedAttribute" : false
                    },
                    "animationTracks" : {

                    }
                  },
                  {
                    "id" : 29,
                    "_type" : "AMFile",
                    "src" : 8,
                    "trackNumber" : 0,
                    "attributes" : {
                      "ident" : "sonidoPasosDesconocidos",
                      "sampleRate" : 44100,
                      "bitDepth" : 16,
                      "gain" : 1.0,
                      "mixToMono" : false
                    },
                      "channelNumber" : "0",
                    "effects" : [

                    ],
                    "start" : 1374,
                    "duration" : 18,
                    "mediaStart" : 0,
                    "mediaDuration" : 18,
                    "scalar" : 1,
                    "metadata" : {
                      "WinSubProjectDisplayName" : "",
                      "clipSpeedAttribute" : false
                    },
                    "animationTracks" : {

                    }
                  },
                  {
                    "id" : 30,
                    "_type" : "AMFile",
                    "src" : 8,
                    "trackNumber" : 0,
                    "attributes" : {
                      "ident" : "sonidoPasosDesconocidos",
                      "sampleRate" : 44100,
                      "bitDepth" : 16,
                      "gain" : 1.0,
                      "mixToMono" : false
                    },
                      "channelNumber" : "0",
                    "effects" : [

                    ],
                    "start" : 1392,
                    "duration" : 18,
                    "mediaStart" : 0,
                    "mediaDuration" : 18,
                    "scalar" : 1,
                    "metadata" : {
                      "WinSubProjectDisplayName" : "",
                      "clipSpeedAttribute" : false
                    },
                    "animationTracks" : {

                    }
                  },
                  {
                    "id" : 31,
                    "_type" : "AMFile",
                    "src" : 8,
                    "trackNumber" : 0,
                    "attributes" : {
                      "ident" : "sonidoPasosDesconocidos",
                      "sampleRate" : 44100,
                      "bitDepth" : 16,
                      "gain" : 1.0,
                      "mixToMono" : false
                    },
                      "channelNumber" : "0",
                    "effects" : [

                    ],
                    "start" : 1410,
                    "duration" : 18,
                    "mediaStart" : 0,
                    "mediaDuration" : 18,
                    "scalar" : 1,
                    "metadata" : {
                      "WinSubProjectDisplayName" : "",
                      "clipSpeedAttribute" : false
                    },
                    "animationTracks" : {

                    }
                  },
                  {
                    "id" : 32,
                    "_type" : "AMFile",
                    "src" : 7,
                    "trackNumber" : 0,
                    "attributes" : {
                      "ident" : "Puerta - Efecto de Sonido (128kbit_AAC)",
                      "sampleRate" : 44100,
                      "bitDepth" : 0,
                      "gain" : 1.0,
                      "mixToMono" : false
                    },
                      "channelNumber" : "0,1",
                    "effects" : [

                    ],
                    "start" : 1428,
                    "duration" : 104,
                    "mediaStart" : 0,
                    "mediaDuration" : 104,
                    "scalar" : 1,
                    "metadata" : {
                      "WinSubProjectDisplayName" : "",
                      "clipSpeedAttribute" : false
                    },
                    "animationTracks" : {

                    }
                  },
                  {
                    "id" : 33,
                    "_type" : "AMFile",
                    "src" : 7,
                    "trackNumber" : 0,
                    "attributes" : {
                      "ident" : "Puerta - Efecto de Sonido (128kbit_AAC)",
                      "sampleRate" : 44100,
                      "bitDepth" : 0,
                      "gain" : 1.0,
                      "mixToMono" : false
                    },
                      "channelNumber" : "0,1",
                    "effects" : [

                    ],
                    "start" : 1532,
                    "duration" : 102,
                    "mediaStart" : 104,
                    "mediaDuration" : 102,
                    "scalar" : 1,
                    "metadata" : {
                      "WinSubProjectDisplayName" : "",
                      "clipSpeedAttribute" : false
                    },
                    "animationTracks" : {

                    }
                  },
                  {
                    "id" : 34,
                    "_type" : "AMFile",
                    "src" : 8,
                    "trackNumber" : 0,
                    "attributes" : {
                      "ident" : "sonidoPasosDesconocidos",
                      "sampleRate" : 44100,
                      "bitDepth" : 16,
                      "gain" : 1.0,
                      "mixToMono" : false
                    },
                      "channelNumber" : "0",
                    "effects" : [

                    ],
                    "start" : 1634,
                    "duration" : 18,
                    "mediaStart" : 0,
                    "mediaDuration" : 18,
                    "scalar" : 1,
                    "metadata" : {
                      "WinSubProjectDisplayName" : "",
                      "clipSpeedAttribute" : false
                    },
                    "animationTracks" : {

                    }
                  },
                  {
                    "id" : 35,
                    "_type" : "AMFile",
                    "src" : 8,
                    "trackNumber" : 0,
                    "attributes" : {
                      "ident" : "sonidoPasosDesconocidos",
                      "sampleRate" : 44100,
                      "bitDepth" : 16,
                      "gain" : 1.0,
                      "mixToMono" : false
                    },
                      "channelNumber" : "0",
                    "effects" : [

                    ],
                    "start" : 1652,
                    "duration" : 18,
                    "mediaStart" : 0,
                    "mediaDuration" : 18,
                    "scalar" : 1,
                    "metadata" : {
                      "WinSubProjectDisplayName" : "",
                      "clipSpeedAttribute" : false
                    },
                    "animationTracks" : {

                    }
                  },
                  {
                    "id" : 36,
                    "_type" : "AMFile",
                    "src" : 8,
                    "trackNumber" : 0,
                    "attributes" : {
                      "ident" : "sonidoPasosDesconocidos",
                      "sampleRate" : 44100,
                      "bitDepth" : 16,
                      "gain" : 1.0,
                      "mixToMono" : false
                    },
                      "channelNumber" : "0",
                    "effects" : [

                    ],
                    "start" : 1670,
                    "duration" : 18,
                    "mediaStart" : 0,
                    "mediaDuration" : 18,
                    "scalar" : 1,
                    "metadata" : {
                      "WinSubProjectDisplayName" : "",
                      "clipSpeedAttribute" : false
                    },
                    "animationTracks" : {

                    }
                  },
                  {
                    "id" : 37,
                    "_type" : "AMFile",
                    "src" : 8,
                    "trackNumber" : 0,
                    "attributes" : {
                      "ident" : "sonidoPasosDesconocidos",
                      "sampleRate" : 44100,
                      "bitDepth" : 16,
                      "gain" : 1.0,
                      "mixToMono" : false
                    },
                      "channelNumber" : "0",
                    "effects" : [

                    ],
                    "start" : 1688,
                    "duration" : 18,
                    "mediaStart" : 0,
                    "mediaDuration" : 18,
                    "scalar" : 1,
                    "metadata" : {
                      "WinSubProjectDisplayName" : "",
                      "clipSpeedAttribute" : false
                    },
                    "animationTracks" : {

                    }
                  },
                  {
                    "id" : 38,
                    "_type" : "AMFile",
                    "src" : 8,
                    "trackNumber" : 0,
                    "attributes" : {
                      "ident" : "sonidoPasosDesconocidos",
                      "sampleRate" : 44100,
                      "bitDepth" : 16,
                      "gain" : 1.0,
                      "mixToMono" : false
                    },
                      "channelNumber" : "0",
                    "effects" : [

                    ],
                    "start" : 1706,
                    "duration" : 18,
                    "mediaStart" : 0,
                    "mediaDuration" : 18,
                    "scalar" : 1,
                    "metadata" : {
                      "WinSubProjectDisplayName" : "",
                      "clipSpeedAttribute" : false
                    },
                    "animationTracks" : {

                    }
                  },
                  {
                    "id" : 39,
                    "_type" : "AMFile",
                    "src" : 8,
                    "trackNumber" : 0,
                    "attributes" : {
                      "ident" : "sonidoPasosDesconocidos",
                      "sampleRate" : 44100,
                      "bitDepth" : 16,
                      "gain" : 1.0,
                      "mixToMono" : false
                    },
                      "channelNumber" : "0",
                    "effects" : [

                    ],
                    "start" : 1724,
                    "duration" : 18,
                    "mediaStart" : 0,
                    "mediaDuration" : 18,
                    "scalar" : 1,
                    "metadata" : {
                      "WinSubProjectDisplayName" : "",
                      "clipSpeedAttribute" : false
                    },
                    "animationTracks" : {

                    }
                  },
                  {
                    "id" : 40,
                    "_type" : "AMFile",
                    "src" : 13,
                    "trackNumber" : 0,
                    "attributes" : {
                      "ident" : "PlayStation 5 Boot Screen and User Interface Concept (192kbit_AAC)",
                      "sampleRate" : 44100,
                      "bitDepth" : 16,
                      "gain" : 1.0,
                      "mixToMono" : false
                    },
                      "channelNumber" : "0,1",
                    "parameters" : {
                      "volume" : {
                        "type" : "double",
                        "keyframes" : [
                          {
                            "time" : 0,
                            "value" : 1.0,
                            "duration" : 0
                          },
                          {
                            "time" : 89,
                            "value" : 1.0,
                            "duration" : 0
                          },
                          {
                            "time" : 90,
                            "value" : 0.0,
                            "duration" : 0
                          },
                          {
                            "time" : 102,
                            "value" : 1.0,
                            "duration" : 0
                          }
                        ]
                      }
                    },
                    "effects" : [

                    ],
                    "start" : 2515,
                    "duration" : 224,
                    "mediaStart" : 90,
                    "mediaDuration" : 224,
                    "scalar" : 1,
                    "metadata" : {
                      "WinSubProjectDisplayName" : "",
                      "clipSpeedAttribute" : false
                    },
                    "animationTracks" : {

                    }
                  },
                  {
                    "id" : 41,
                    "_type" : "AMFile",
                    "src" : 13,
                    "trackNumber" : 0,
                    "attributes" : {
                      "ident" : "PlayStation 5 Boot Screen and User Interface Concept (192kbit_AAC)",
                      "sampleRate" : 44100,
                      "bitDepth" : 16,
                      "gain" : 1.0,
                      "mixToMono" : false
                    },
                      "channelNumber" : "0,1",
                    "effects" : [

                    ],
                    "start" : 2931,
                    "duration" : 112,
                    "mediaStart" : 90,
                    "mediaDuration" : 112,
                    "scalar" : 1,
                    "metadata" : {
                      "WinSubProjectDisplayName" : "",
                      "clipSpeedAttribute" : false
                    },
                    "animationTracks" : {

                    }
                  }
                ]
              },
              {
                "trackIndex" : 5,
                "medias" : [
                  {
                    "id" : 42,
                    "_type" : "Callout",
                    "def" : {
                      "kind" : "remix",
                      "shape" : "text",
                      "style" : "basic",
                      "height" : 866.666666666253,
                      "width" : 1454.99999999977,
                      "word-wrap" : 1.0,
                      "horizontal-alignment" : "left",
                      "text" : "Había terminado de escribir mi reporte sobre los asesinatos de Mebil cuando me percaté de que Sharon, mi hermana, aún no había venido a cenar. \r\rDesde que se independizó de mí, siempre cenamos juntas al final del día, cuando ambas estamos libres de quehaceres.",
                      "vertical-alignment" : "top",
                      "font" : {
                        "color-blue" : 1.0,
                        "color-green" : 1.0,
                        "color-red" : 1.0,
                        "size" : 96.0,
                        "tracking" : 0.0,
                        "name" : "Montserrat",
                        "weight" : "Regular"
                      },
                      "textAttributes" : {
                        "type" : "textAttributeList",
                        "keyframes" : [
                          {
                            "time" : 0,
                            "value" : [{"name":"underline","rangeEnd":267,"rangeStart":0,"value":0,"valueType":"int"},{"name":"fontWeight","rangeEnd":267,"rangeStart":0,"value":400,"valueType":"int"},{"name":"strikethrough","rangeEnd":267,"rangeStart":0,"value":0,"valueType":"int"},{"name":"fgColor","rangeEnd":267,"rangeStart":0,"value":"(255,255,255,255)","valueType":"color"},{"name":"fontSize","rangeEnd":267,"rangeStart":0,"value":43,"valueType":"double"},{"name":"fontName","rangeEnd":267,"rangeStart":0,"value":"Manrope","valueType":"string"},{"name":"fontItalic","rangeEnd":267,"rangeStart":0,"value":0,"valueType":"int"}],
                            "duration" : 0
                          }
                        ]
                      }
                    },
                    "attributes" : {
                      "autoRotateText" : true
                    },
                    "parameters" : {
                      "translation0" : {
                        "type" : "double",
                        "defaultValue" : 29.1666666666461,
                        "keyframes" : [
                          {
                            "time" : 0,
                            "value" : 29.1666666666461,
                            "duration" : 38
                          },
                          {
                            "time" : 644,
                            "value" : 29.1666666666461,
                            "duration" : 30
                          }
                        ]
                      },
                      "translation1" : {
                        "type" : "double",
                        "defaultValue" : -1.49999999954205,
                        "keyframes" : [
                          {
                            "time" : 0,
                            "value" : -1.49999999954205,
                            "duration" : 38
                          },
                          {
                            "time" : 644,
                            "value" : -1.49999999954205,
                            "duration" : 30
                          }
                        ]
                      },
                      "opacity" : {
                        "type" : "double",
                        "defaultValue" : 0.0,
                        "keyframes" : [
                          {
                            "time" : 0,
                            "value" : 1.0,
                            "duration" : 38
                          },
                          {
                            "time" : 644,
                            "value" : 0.0,
                            "duration" : 30
                          }
                        ]
                      }
                    },
                    "effects" : [
                        {
                          "effectName" : "DropShadow",
                          "category" : "categoryVisualEffects",
                          "parameters" : {
                            "angle" : {
                              "type" : "double",
                              "defaultValue" : 5.49778714378214,
                              "uiHints" : {
                                "userInterfaceType" : 0,
                                "unitType" : 0
                              },
                              "keyframes" : [
                                {
                                  "time" : 0,
                                  "value" : 5.49778714378214,
                                  "duration" : 38
                                },
                                {
                                  "time" : 644,
                                  "value" : 5.49778714378214,
                                  "duration" : 30
                                }
                              ]
                            },
                            "blur" : 10.0,
                            "color-alpha" : 1.0,
                            "color-blue" : 0.1216,
                            "color-green" : 0.1216,
                            "color-red" : 0.1216,
                            "enabled" : 1,
                            "offset" : 10.0,
                            "opacity" : 0.4
                          }
                        }
                    ],
                    "start" : 401,
                    "duration" : 704,
                    "mediaStart" : 0,
                    "mediaDuration" : 704,
                    "scalar" : 1,
                    "metadata" : {
                      "WinSubProjectDisplayName" : "",
                      "clipSpeedAttribute" : false,
                      "default-HAlign" : "center",
                      "default-VAlign" : "center",
                      "default-opacity" : 1.0,
                      "default-text-attributes" : "[{\"name\":\"fontName\",\"rangeEnd\":266,\"rangeStart\":0,\"value\":\"Manrope\",\"valueType\":\"string\"},{\"name\":\"fontSize\",\"rangeEnd\":266,\"rangeStart\":0,\"value\":43,\"valueType\":\"double\"},{\"name\":\"strikethrough\",\"rangeEnd\":266,\"rangeStart\":0,\"value\":0,\"valueType\":\"int\"},{\"name\":\"fontWeight\",\"rangeEnd\":266,\"rangeStart\":0,\"value\":400,\"valueType\":\"int\"},{\"name\":\"fgColor\",\"rangeEnd\":266,\"rangeStart\":0,\"value\":\"(255,255,255,255)\",\"valueType\":\"color\"},{\"name\":\"fontItalic\",\"rangeEnd\":266,\"rangeStart\":0,\"value\":0,\"valueType\":\"int\"},{\"name\":\"underline\",\"rangeEnd\":266,\"rangeStart\":0,\"value\":0,\"valueType\":\"int\"}]",
                      "default-translation0" : 0.0,
                      "default-translation1" : 0.0
                    },
                    "animationTracks" : {
                      "visual" : [
                        {
                          "range" : [ 0, 38]
                        },
                        {
                          "range" : [ 644, 30]
                        }
                      ]
                    }
                  },
                  {
                    "id" : 43,
                    "_type" : "IMFile",
                    "src" : 10,
                    "trackNumber" : 0,
                    "trimStartSum" : 0,
                    "attributes" : {
                      "ident" : "saliendoCoche"
                    },
                    "parameters" : {
                      "opacity" : {
                        "type" : "double",
                        "defaultValue" : 0.0,
                        "keyframes" : [
                          {
                            "time" : 6,
                            "value" : 1.0,
                            "duration" : 30
                          }
                        ]
                      }
                    },
                    "effects" : [

                    ],
                    "start" : 1264,
                    "duration" : 52,
                    "mediaStart" : 0,
                    "mediaDuration" : 1,
                    "scalar" : 1,
                    "metadata" : {
                      "WinSubProjectDisplayName" : "",
                      "clipSpeedAttribute" : false,
                      "default-opacity" : 1.0
                    },
                    "animationTracks" : {
                      "visual" : [
                        {
                          "range" : [ 6, 30]
                        }
                      ]
                    }
                  },
                  {
                    "id" : 44,
                    "_type" : "IMFile",
                    "src" : 9,
                    "trackNumber" : 0,
                    "trimStartSum" : 0,
                    "attributes" : {
                      "ident" : "perroTriste"
                    },
                    "parameters" : {
                      "opacity" : {
                        "type" : "double",
                        "defaultValue" : 0.0,
                        "keyframes" : [
                          {
                            "time" : 0,
                            "value" : 0.2,
                            "duration" : 30
                          },
                          {
                            "time" : 642,
                            "value" : 0.0,
                            "duration" : 48
                          }
                        ]
                      }
                    },
                    "effects" : [

                    ],
                    "start" : 1721,
                    "duration" : 690,
                    "mediaStart" : 0,
                    "mediaDuration" : 1,
                    "scalar" : 1,
                    "metadata" : {
                      "WinSubProjectDisplayName" : "",
                      "clipSpeedAttribute" : false,
                      "default-opacity" : 1.0
                    },
                    "animationTracks" : {
                      "visual" : [
                        {
                          "range" : [ 0, 30]
                        },
                        {
                          "range" : [ 642, 48]
                        }
                      ]
                    }
                  },
                  {
                    "id" : 45,
                    "_type" : "AMFile",
                    "src" : 13,
                    "trackNumber" : 0,
                    "attributes" : {
                      "ident" : "PlayStation 5 Boot Screen and User Interface Concept (192kbit_AAC)",
                      "sampleRate" : 44100,
                      "bitDepth" : 16,
                      "gain" : 1.0,
                      "mixToMono" : false
                    },
                      "channelNumber" : "0,1",
                    "effects" : [

                    ],
                    "start" : 2720,
                    "duration" : 224,
                    "mediaStart" : 90,
                    "mediaDuration" : 224,
                    "scalar" : 1,
                    "metadata" : {
                      "WinSubProjectDisplayName" : "",
                      "clipSpeedAttribute" : false
                    },
                    "animationTracks" : {

                    }
                  }
                ]
              },
              {
                "trackIndex" : 6,
                "medias" : [
                  {
                    "id" : 46,
                    "_type" : "Callout",
                    "def" : {
                      "kind" : "remix",
                      "shape" : "text",
                      "style" : "basic",
                      "height" : 866.666666666253,
                      "width" : 1454.99999999977,
                      "word-wrap" : 1.0,
                      "horizontal-alignment" : "left",
                      "text" : "Había terminado de escribir mi reporte sobre los asesinatos de Mebil cuando me percaté de que Sharon, mi hermana, aún no había venido a cenar. \r\rDesde que se independizó de mí, siempre cenamos juntas al final del día, cuando ambas estamos libres de quehaceres.\rNunca cambia su rutina: Termina su jornada laboral como enfermera en un centro de Zesimov: El viejo asilo Karlheinz (ubicado en las montañas y apartado de la ciudad), va a su casa a asearse y a dar amor a su perro, para luego venir aquí, y así ofrecerme su compañía.",
                      "vertical-alignment" : "top",
                      "font" : {
                        "color-blue" : 1.0,
                        "color-green" : 1.0,
                        "color-red" : 1.0,
                        "size" : 96.0,
                        "tracking" : 0.0,
                        "name" : "Montserrat",
                        "weight" : "Regular"
                      },
                      "textAttributes" : {
                        "type" : "textAttributeList",
                        "keyframes" : [
                          {
                            "time" : 0,
                            "value" : [{"name":"underline","rangeEnd":539,"rangeStart":0,"value":0,"valueType":"int"},{"name":"fontWeight","rangeEnd":539,"rangeStart":0,"value":400,"valueType":"int"},{"name":"strikethrough","rangeEnd":539,"rangeStart":0,"value":0,"valueType":"int"},{"name":"fontSize","rangeEnd":539,"rangeStart":0,"value":43,"valueType":"double"},{"name":"fontName","rangeEnd":539,"rangeStart":0,"value":"Manrope","valueType":"string"},{"name":"fontItalic","rangeEnd":539,"rangeStart":0,"value":0,"valueType":"int"},{"name":"fgColor","rangeEnd":539,"rangeStart":0,"value":"(255,255,255,255)","valueType":"color"}],
                            "duration" : 0
                          }
                        ]
                      }
                    },
                    "attributes" : {
                      "autoRotateText" : true
                    },
                    "parameters" : {
                      "translation0" : {
                        "type" : "double",
                        "defaultValue" : 29.1666666666461,
                        "keyframes" : [
                          {
                            "time" : 0,
                            "value" : 29.1666666666461,
                            "duration" : 38
                          },
                          {
                            "time" : 536,
                            "value" : 29.1666666666461,
                            "duration" : 30
                          }
                        ]
                      },
                      "translation1" : {
                        "type" : "double",
                        "defaultValue" : -1.49999999954205,
                        "keyframes" : [
                          {
                            "time" : 0,
                            "value" : -1.49999999954205,
                            "duration" : 38
                          },
                          {
                            "time" : 536,
                            "value" : -1.49999999954205,
                            "duration" : 30
                          }
                        ]
                      },
                      "opacity" : {
                        "type" : "double",
                        "defaultValue" : 0.0,
                        "keyframes" : [
                          {
                            "time" : 0,
                            "value" : 1.0,
                            "duration" : 38
                          },
                          {
                            "time" : 536,
                            "value" : 0.0,
                            "duration" : 30
                          }
                        ]
                      }
                    },
                    "effects" : [
                        {
                          "effectName" : "DropShadow",
                          "category" : "categoryVisualEffects",
                          "parameters" : {
                            "angle" : {
                              "type" : "double",
                              "defaultValue" : 5.49778714378214,
                              "uiHints" : {
                                "userInterfaceType" : 0,
                                "unitType" : 0
                              },
                              "keyframes" : [
                                {
                                  "time" : 0,
                                  "value" : 5.49778714378214,
                                  "duration" : 38
                                },
                                {
                                  "time" : 536,
                                  "value" : 5.49778714378214,
                                  "duration" : 30
                                }
                              ]
                            },
                            "blur" : 10.0,
                            "color-alpha" : 1.0,
                            "color-blue" : 0.1216,
                            "color-green" : 0.1216,
                            "color-red" : 0.1216,
                            "enabled" : 1,
                            "offset" : 10.0,
                            "opacity" : 0.4
                          }
                        }
                    ],
                    "start" : 509,
                    "duration" : 596,
                    "mediaStart" : 0,
                    "mediaDuration" : 596,
                    "scalar" : 1,
                    "metadata" : {
                      "WinSubProjectDisplayName" : "",
                      "clipSpeedAttribute" : false,
                      "default-HAlign" : "center",
                      "default-VAlign" : "center",
                      "default-opacity" : 1.0,
                      "default-text-attributes" : "[{\"name\":\"fontName\",\"rangeEnd\":538,\"rangeStart\":0,\"value\":\"Manrope\",\"valueType\":\"string\"},{\"name\":\"fgColor\",\"rangeEnd\":538,\"rangeStart\":0,\"value\":\"(255,255,255,255)\",\"valueType\":\"color\"},{\"name\":\"fontItalic\",\"rangeEnd\":538,\"rangeStart\":0,\"value\":0,\"valueType\":\"int\"},{\"name\":\"fontSize\",\"rangeEnd\":538,\"rangeStart\":0,\"value\":43,\"valueType\":\"double\"},{\"name\":\"underline\",\"rangeEnd\":538,\"rangeStart\":0,\"value\":0,\"valueType\":\"int\"},{\"name\":\"strikethrough\",\"rangeEnd\":538,\"rangeStart\":0,\"value\":0,\"valueType\":\"int\"},{\"name\":\"fontWeight\",\"rangeEnd\":538,\"rangeStart\":0,\"value\":400,\"valueType\":\"int\"}]",
                      "default-translation0" : 0.0,
                      "default-translation1" : 0.0
                    },
                    "animationTracks" : {
                      "visual" : [
                        {
                          "range" : [ 0, 38]
                        },
                        {
                          "range" : [ 536, 30]
                        }
                      ]
                    }
                  },
                  {
                    "id" : 47,
                    "_type" : "Callout",
                    "def" : {
                      "kind" : "remix",
                      "shape" : "text",
                      "style" : "basic",
                      "height" : 866.666666666253,
                      "width" : 1454.99999999977,
                      "word-wrap" : 1.0,
                      "horizontal-alignment" : "left",
                      "text" : "La casa está vacía, y el perro necesitado... Las llaves de su coche no están por ningún lado... Espero encontrarla en ese antro donde trabaja, y que sólo esté haciendo horas extras... ",
                      "vertical-alignment" : "top",
                      "font" : {
                        "color-blue" : 1.0,
                        "color-green" : 1.0,
                        "color-red" : 1.0,
                        "size" : 96.0,
                        "tracking" : 0.0,
                        "name" : "Montserrat",
                        "weight" : "Regular"
                      },
                      "textAttributes" : {
                        "type" : "textAttributeList",
                        "keyframes" : [
                          {
                            "time" : 0,
                            "value" : [{"name":"fontSize","rangeEnd":190,"rangeStart":0,"value":43,"valueType":"double"},{"name":"fontWeight","rangeEnd":190,"rangeStart":0,"value":400,"valueType":"int"},{"name":"fontItalic","rangeEnd":190,"rangeStart":0,"value":0,"valueType":"int"},{"name":"underline","rangeEnd":190,"rangeStart":0,"value":0,"valueType":"int"},{"name":"fontName","rangeEnd":190,"rangeStart":0,"value":"Manrope","valueType":"string"},{"name":"strikethrough","rangeEnd":190,"rangeStart":0,"value":0,"valueType":"int"},{"name":"fgColor","rangeEnd":190,"rangeStart":0,"value":"(255,255,255,255)","valueType":"color"}],
                            "duration" : 0
                          }
                        ]
                      }
                    },
                    "attributes" : {
                      "autoRotateText" : true
                    },
                    "parameters" : {
                      "translation0" : {
                        "type" : "double",
                        "defaultValue" : 29.1666666666461,
                        "keyframes" : [
                          {
                            "time" : 21,
                            "value" : 29.1666666666461,
                            "duration" : 88
                          }
                        ]
                      },
                      "translation1" : {
                        "type" : "double",
                        "defaultValue" : -1.49999999954205,
                        "keyframes" : [
                          {
                            "time" : 21,
                            "value" : -1.49999999954205,
                            "duration" : 88
                          }
                        ]
                      },
                      "opacity" : {
                        "type" : "double",
                        "defaultValue" : 0.0,
                        "keyframes" : [
                          {
                            "time" : 21,
                            "value" : 1.0,
                            "duration" : 88
                          }
                        ]
                      }
                    },
                    "effects" : [
                        {
                          "effectName" : "DropShadow",
                          "category" : "categoryVisualEffects",
                          "parameters" : {
                            "angle" : {
                              "type" : "double",
                              "defaultValue" : 5.49778714378214,
                              "uiHints" : {
                                "userInterfaceType" : 0,
                                "unitType" : 0
                              },
                              "keyframes" : [
                                {
                                  "time" : 21,
                                  "value" : 5.49778714378214,
                                  "duration" : 88
                                }
                              ]
                            },
                            "blur" : 10.0,
                            "color-alpha" : 1.0,
                            "color-blue" : 0.1216,
                            "color-green" : 0.1216,
                            "color-red" : 0.1216,
                            "enabled" : 1,
                            "offset" : 10.0,
                            "opacity" : 0.4
                          }
                        }
                    ],
                    "start" : 1728,
                    "duration" : 644,
                    "mediaStart" : 0,
                    "mediaDuration" : 644,
                    "scalar" : 1,
                    "metadata" : {
                      "WinSubProjectDisplayName" : "",
                      "clipSpeedAttribute" : false,
                      "default-HAlign" : "center",
                      "default-VAlign" : "center",
                      "default-opacity" : 1.0,
                      "default-translation0" : 0.0,
                      "default-translation1" : 0.0
                    },
                    "animationTracks" : {
                      "visual" : [
                        {
                          "range" : [ 21, 88]
                        }
                      ]
                    }
                  }
                ]
              },
              {
                "trackIndex" : 7,
                "medias" : [
                  {
                    "id" : 48,
                    "_type" : "Callout",
                    "def" : {
                      "kind" : "remix",
                      "shape" : "text",
                      "style" : "basic",
                      "height" : 866.666666666253,
                      "width" : 1454.99999999977,
                      "word-wrap" : 1.0,
                      "horizontal-alignment" : "left",
                      "text" : "Había terminado de escribir mi reporte sobre los asesinatos de Mebil cuando me percaté de que Sharon, mi hermana, aún no había venido a cenar. \r\rDesde que se independizó de mí, siempre cenamos juntas al final del día, cuando ambas estamos libres de quehaceres.\rNunca cambia su rutina: Termina su jornada laboral como enfermera en un centro de Zesimov: El viejo asilo Karlheinz (ubicado en las montañas y apartado de la ciudad), va a su casa a asearse y a dar amor a su perro, para luego venir aquí, y así ofrecerme su compañía. \r\rHablamos de nuestras cosas e intercambiamos opiniones del mundo. A pesar de nuestros complicados trabajos, estamos muy unidas. Supongo que la perdida de nuestros padres a corta edad, reforzó nuestra unión...",
                      "vertical-alignment" : "top",
                      "font" : {
                        "color-blue" : 1.0,
                        "color-green" : 1.0,
                        "color-red" : 1.0,
                        "size" : 96.0,
                        "tracking" : 0.0,
                        "name" : "Montserrat",
                        "weight" : "Regular"
                      },
                      "textAttributes" : {
                        "type" : "textAttributeList",
                        "keyframes" : [
                          {
                            "time" : 0,
                            "value" : [{"name":"underline","rangeEnd":751,"rangeStart":0,"value":0,"valueType":"int"},{"name":"strikethrough","rangeEnd":751,"rangeStart":0,"value":0,"valueType":"int"},{"name":"fontWeight","rangeEnd":751,"rangeStart":0,"value":400,"valueType":"int"},{"name":"fgColor","rangeEnd":751,"rangeStart":0,"value":"(255,255,255,255)","valueType":"color"},{"name":"fontItalic","rangeEnd":751,"rangeStart":0,"value":0,"valueType":"int"},{"name":"fontName","rangeEnd":751,"rangeStart":0,"value":"Manrope","valueType":"string"},{"name":"fontSize","rangeEnd":751,"rangeStart":0,"value":43,"valueType":"double"}],
                            "duration" : 0
                          }
                        ]
                      }
                    },
                    "attributes" : {
                      "autoRotateText" : true
                    },
                    "parameters" : {
                      "translation0" : {
                        "type" : "double",
                        "defaultValue" : 29.1666666666461,
                        "keyframes" : [
                          {
                            "time" : 0,
                            "value" : 29.1666666666461,
                            "duration" : 38
                          },
                          {
                            "time" : 350,
                            "value" : 29.1666666666461,
                            "duration" : 30
                          }
                        ]
                      },
                      "translation1" : {
                        "type" : "double",
                        "defaultValue" : -1.49999999954205,
                        "keyframes" : [
                          {
                            "time" : 0,
                            "value" : -1.49999999954205,
                            "duration" : 38
                          },
                          {
                            "time" : 350,
                            "value" : -1.49999999954205,
                            "duration" : 30
                          }
                        ]
                      },
                      "opacity" : {
                        "type" : "double",
                        "defaultValue" : 0.0,
                        "keyframes" : [
                          {
                            "time" : 0,
                            "value" : 1.0,
                            "duration" : 38
                          },
                          {
                            "time" : 350,
                            "value" : 0.0,
                            "duration" : 30
                          }
                        ]
                      }
                    },
                    "effects" : [
                        {
                          "effectName" : "DropShadow",
                          "category" : "categoryVisualEffects",
                          "parameters" : {
                            "angle" : {
                              "type" : "double",
                              "defaultValue" : 5.49778714378214,
                              "uiHints" : {
                                "userInterfaceType" : 0,
                                "unitType" : 0
                              },
                              "keyframes" : [
                                {
                                  "time" : 0,
                                  "value" : 5.49778714378214,
                                  "duration" : 38
                                },
                                {
                                  "time" : 350,
                                  "value" : 5.49778714378214,
                                  "duration" : 30
                                }
                              ]
                            },
                            "blur" : 10.0,
                            "color-alpha" : 1.0,
                            "color-blue" : 0.1216,
                            "color-green" : 0.1216,
                            "color-red" : 0.1216,
                            "enabled" : 1,
                            "offset" : 10.0,
                            "opacity" : 0.4
                          }
                        }
                    ],
                    "start" : 695,
                    "duration" : 410,
                    "mediaStart" : 0,
                    "mediaDuration" : 410,
                    "scalar" : 1,
                    "metadata" : {
                      "WinSubProjectDisplayName" : "",
                      "clipSpeedAttribute" : false,
                      "default-HAlign" : "center",
                      "default-VAlign" : "center",
                      "default-opacity" : 1.0,
                      "default-text-attributes" : "[{\"name\":\"underline\",\"rangeEnd\":749,\"rangeStart\":0,\"value\":0,\"valueType\":\"int\"},{\"name\":\"fontName\",\"rangeEnd\":749,\"rangeStart\":0,\"value\":\"Manrope\",\"valueType\":\"string\"},{\"name\":\"fgColor\",\"rangeEnd\":749,\"rangeStart\":0,\"value\":\"(255,255,255,255)\",\"valueType\":\"color\"},{\"name\":\"fontItalic\",\"rangeEnd\":749,\"rangeStart\":0,\"value\":0,\"valueType\":\"int\"},{\"name\":\"fontSize\",\"rangeEnd\":749,\"rangeStart\":0,\"value\":43,\"valueType\":\"double\"},{\"name\":\"fontWeight\",\"rangeEnd\":749,\"rangeStart\":0,\"value\":400,\"valueType\":\"int\"},{\"name\":\"strikethrough\",\"rangeEnd\":749,\"rangeStart\":0,\"value\":0,\"valueType\":\"int\"}]",
                      "default-translation0" : 0.0,
                      "default-translation1" : 0.0
                    },
                    "animationTracks" : {
                      "visual" : [
                        {
                          "range" : [ 0, 38]
                        },
                        {
                          "range" : [ 350, 30]
                        }
                      ]
                    }
                  },
                  {
                    "id" : 49,
                    "_type" : "Callout",
                    "def" : {
                      "kind" : "remix",
                      "shape" : "text",
                      "style" : "basic",
                      "height" : 866.666666666253,
                      "width" : 1454.99999999977,
                      "word-wrap" : 1.0,
                      "horizontal-alignment" : "left",
                      "text" : "La casa está vacía, y el perro necesitado... Las llaves de su coche no están por ningún lado... Espero encontrarla en ese antro donde trabaja, y que sólo esté haciendo horas extras... \r\rQuizás esté siendo paranoica, pero estoy preocupada porque Sharon me habló de que en ese asilo ocurrían cosas raras, y cada vez con más frecuencia... No sabía explicarme muy bien lo que pensaba, pero la notaba tensa... ",
                      "vertical-alignment" : "top",
                      "font" : {
                        "color-blue" : 1.0,
                        "color-green" : 1.0,
                        "color-red" : 1.0,
                        "size" : 96.0,
                        "tracking" : 0.0,
                        "name" : "Montserrat",
                        "weight" : "Regular"
                      },
                      "textAttributes" : {
                        "type" : "textAttributeList",
                        "keyframes" : [
                          {
                            "time" : 0,
                            "value" : [{"name":"fontItalic","rangeEnd":417,"rangeStart":0,"value":0,"valueType":"int"},{"name":"fontName","rangeEnd":417,"rangeStart":0,"value":"Manrope","valueType":"string"},{"name":"fgColor","rangeEnd":417,"rangeStart":0,"value":"(255,255,255,255)","valueType":"color"},{"name":"strikethrough","rangeEnd":417,"rangeStart":0,"value":0,"valueType":"int"},{"name":"fontWeight","rangeEnd":417,"rangeStart":0,"value":400,"valueType":"int"},{"name":"underline","rangeEnd":417,"rangeStart":0,"value":0,"valueType":"int"},{"name":"fontSize","rangeEnd":417,"rangeStart":0,"value":43,"valueType":"double"}],
                            "duration" : 0
                          }
                        ]
                      }
                    },
                    "attributes" : {
                      "autoRotateText" : true
                    },
                    "parameters" : {
                      "translation0" : {
                        "type" : "double",
                        "defaultValue" : 29.1666666666461,
                        "keyframes" : [
                          {
                            "time" : 21,
                            "value" : 29.1666666666461,
                            "duration" : 88
                          }
                        ]
                      },
                      "translation1" : {
                        "type" : "double",
                        "defaultValue" : -1.49999999954205,
                        "keyframes" : [
                          {
                            "time" : 21,
                            "value" : -1.49999999954205,
                            "duration" : 88
                          }
                        ]
                      },
                      "opacity" : {
                        "type" : "double",
                        "defaultValue" : 0.0,
                        "keyframes" : [
                          {
                            "time" : 21,
                            "value" : 1.0,
                            "duration" : 88
                          }
                        ]
                      }
                    },
                    "effects" : [
                        {
                          "effectName" : "DropShadow",
                          "category" : "categoryVisualEffects",
                          "parameters" : {
                            "angle" : {
                              "type" : "double",
                              "defaultValue" : 5.49778714378214,
                              "uiHints" : {
                                "userInterfaceType" : 0,
                                "unitType" : 0
                              },
                              "keyframes" : [
                                {
                                  "time" : 21,
                                  "value" : 5.49778714378214,
                                  "duration" : 88
                                }
                              ]
                            },
                            "blur" : 10.0,
                            "color-alpha" : 1.0,
                            "color-blue" : 0.1216,
                            "color-green" : 0.1216,
                            "color-red" : 0.1216,
                            "enabled" : 1,
                            "offset" : 10.0,
                            "opacity" : 0.4
                          }
                        }
                    ],
                    "start" : 1892,
                    "duration" : 480,
                    "mediaStart" : 0,
                    "mediaDuration" : 480,
                    "scalar" : 1,
                    "metadata" : {
                      "WinSubProjectDisplayName" : "",
                      "clipSpeedAttribute" : false,
                      "default-HAlign" : "center",
                      "default-VAlign" : "center",
                      "default-opacity" : 1.0,
                      "default-text-attributes" : "[{\"name\":\"underline\",\"rangeEnd\":416,\"rangeStart\":0,\"value\":0,\"valueType\":\"int\"},{\"name\":\"fontWeight\",\"rangeEnd\":416,\"rangeStart\":0,\"value\":400,\"valueType\":\"int\"},{\"name\":\"fgColor\",\"rangeEnd\":416,\"rangeStart\":0,\"value\":\"(255,255,255,255)\",\"valueType\":\"color\"},{\"name\":\"fontSize\",\"rangeEnd\":416,\"rangeStart\":0,\"value\":43,\"valueType\":\"double\"},{\"name\":\"strikethrough\",\"rangeEnd\":416,\"rangeStart\":0,\"value\":0,\"valueType\":\"int\"},{\"name\":\"fontName\",\"rangeEnd\":416,\"rangeStart\":0,\"value\":\"Manrope\",\"valueType\":\"string\"},{\"name\":\"fontItalic\",\"rangeEnd\":416,\"rangeStart\":0,\"value\":0,\"valueType\":\"int\"}]",
                      "default-translation0" : 0.0,
                      "default-translation1" : 0.0
                    },
                    "animationTracks" : {
                      "visual" : [
                        {
                          "range" : [ 21, 88]
                        }
                      ]
                    }
                  }
                ]
              },
              {
                "trackIndex" : 8,
                "medias" : [
                  {
                    "id" : 50,
                    "_type" : "Callout",
                    "def" : {
                      "kind" : "remix",
                      "shape" : "text",
                      "style" : "basic",
                      "height" : 866.666666666253,
                      "width" : 1454.99999999977,
                      "word-wrap" : 1.0,
                      "horizontal-alignment" : "left",
                      "text" : "Había terminado de escribir mi reporte sobre los asesinatos de Mebil cuando me percaté de que Sharon, mi hermana, aún no había venido a cenar. \r\rDesde que se independizó de mí, siempre cenamos juntas al final del día, cuando ambas estamos libres de quehaceres. \rNunca cambia su rutina: Termina su jornada laboral como enfermera en un centro de Zesimov: El viejo asilo Karlheinz (ubicado en las montañas y apartado de la ciudad), va a su casa a asearse y a dar amor a su perro, para luego venir aquí, y así ofrecerme su compañía. \r\rHablamos de nuestras cosas e intercambiamos opiniones del mundo. A pesar de nuestros complicados trabajos, estamos muy unidas. Supongo que la perdida de nuestros padres a corta edad, reforzó nuestra unión... \r\rAsí que, que no haya venido y no me haya respondido las llamadas, no es buena señal... Me estoy dirigiendo a su casa para comprobar si está allí...",
                      "vertical-alignment" : "top",
                      "font" : {
                        "color-blue" : 1.0,
                        "color-green" : 1.0,
                        "color-red" : 1.0,
                        "size" : 96.0,
                        "tracking" : 0.0,
                        "name" : "Montserrat",
                        "weight" : "Regular"
                      },
                      "textAttributes" : {
                        "type" : "textAttributeList",
                        "keyframes" : [
                          {
                            "time" : 0,
                            "value" : [{"name":"underline","rangeEnd":906,"rangeStart":0,"value":0,"valueType":"int"},{"name":"strikethrough","rangeEnd":906,"rangeStart":0,"value":0,"valueType":"int"},{"name":"fontName","rangeEnd":906,"rangeStart":0,"value":"Manrope","valueType":"string"},{"name":"fontSize","rangeEnd":906,"rangeStart":0,"value":43,"valueType":"double"},{"name":"fontItalic","rangeEnd":906,"rangeStart":0,"value":0,"valueType":"int"},{"name":"fontWeight","rangeEnd":906,"rangeStart":0,"value":400,"valueType":"int"},{"name":"fgColor","rangeEnd":906,"rangeStart":0,"value":"(255,255,255,255)","valueType":"color"}],
                            "duration" : 0
                          }
                        ]
                      }
                    },
                    "attributes" : {
                      "autoRotateText" : true
                    },
                    "parameters" : {
                      "translation0" : {
                        "type" : "double",
                        "defaultValue" : 29.1666666666461,
                        "keyframes" : [
                          {
                            "time" : 0,
                            "value" : 29.1666666666461,
                            "duration" : 38
                          },
                          {
                            "time" : 278,
                            "value" : 29.1666666666461,
                            "duration" : 50
                          }
                        ]
                      },
                      "translation1" : {
                        "type" : "double",
                        "defaultValue" : -1.49999999954205,
                        "keyframes" : [
                          {
                            "time" : 0,
                            "value" : -1.49999999954205,
                            "duration" : 38
                          },
                          {
                            "time" : 278,
                            "value" : -1.49999999954205,
                            "duration" : 50
                          }
                        ]
                      },
                      "opacity" : {
                        "type" : "double",
                        "defaultValue" : 0.0,
                        "keyframes" : [
                          {
                            "time" : 0,
                            "value" : 1.0,
                            "duration" : 38
                          },
                          {
                            "time" : 278,
                            "value" : 0.0,
                            "duration" : 50
                          }
                        ]
                      }
                    },
                    "effects" : [
                        {
                          "effectName" : "DropShadow",
                          "category" : "categoryVisualEffects",
                          "parameters" : {
                            "angle" : {
                              "type" : "double",
                              "defaultValue" : 5.49778714378214,
                              "uiHints" : {
                                "userInterfaceType" : 0,
                                "unitType" : 0
                              },
                              "keyframes" : [
                                {
                                  "time" : 0,
                                  "value" : 5.49778714378214,
                                  "duration" : 38
                                },
                                {
                                  "time" : 278,
                                  "value" : 5.49778714378214,
                                  "duration" : 50
                                }
                              ]
                            },
                            "blur" : 10.0,
                            "color-alpha" : 1.0,
                            "color-blue" : 0.1216,
                            "color-green" : 0.1216,
                            "color-red" : 0.1216,
                            "enabled" : 1,
                            "offset" : 10.0,
                            "opacity" : 0.4
                          }
                        }
                    ],
                    "start" : 859,
                    "duration" : 331,
                    "mediaStart" : 0,
                    "mediaDuration" : 331,
                    "scalar" : 1,
                    "metadata" : {
                      "WinSubProjectDisplayName" : "",
                      "clipSpeedAttribute" : false,
                      "default-HAlign" : "center",
                      "default-VAlign" : "center",
                      "default-opacity" : 1.0,
                      "default-text-attributes" : "[{\"name\":\"fgColor\",\"rangeEnd\":902,\"rangeStart\":0,\"value\":\"(255,255,255,255)\",\"valueType\":\"color\"},{\"name\":\"fontWeight\",\"rangeEnd\":902,\"rangeStart\":0,\"value\":400,\"valueType\":\"int\"},{\"name\":\"underline\",\"rangeEnd\":902,\"rangeStart\":0,\"value\":0,\"valueType\":\"int\"},{\"name\":\"fontSize\",\"rangeEnd\":902,\"rangeStart\":0,\"value\":43,\"valueType\":\"double\"},{\"name\":\"fontName\",\"rangeEnd\":902,\"rangeStart\":0,\"value\":\"Manrope\",\"valueType\":\"string\"},{\"name\":\"fontItalic\",\"rangeEnd\":902,\"rangeStart\":0,\"value\":0,\"valueType\":\"int\"},{\"name\":\"strikethrough\",\"rangeEnd\":902,\"rangeStart\":0,\"value\":0,\"valueType\":\"int\"}]",
                      "default-translation0" : 0.0,
                      "default-translation1" : 0.0
                    },
                    "animationTracks" : {
                      "visual" : [
                        {
                          "range" : [ 0, 38]
                        },
                        {
                          "range" : [ 278, 50]
                        }
                      ]
                    }
                  },
                  {
                    "id" : 51,
                    "_type" : "AMFile",
                    "src" : 11,
                    "trackNumber" : 0,
                    "attributes" : {
                      "ident" : "PERROS LLORANDO  Efectos de Sonidos HD (192kbit_AAC)",
                      "sampleRate" : 44100,
                      "bitDepth" : 16,
                      "gain" : 1.0,
                      "mixToMono" : false
                    },
                      "channelNumber" : "0,1",
                    "parameters" : {
                      "volume" : 0.32967032967033
                    },
                    "effects" : [

                    ],
                    "start" : 1786,
                    "duration" : 56,
                    "mediaStart" : 1929,
                    "mediaDuration" : 56,
                    "scalar" : 1,
                    "metadata" : {
                      "WinSubProjectDisplayName" : "",
                      "clipSpeedAttribute" : false
                    },
                    "animationTracks" : {

                    }
                  },
                  {
                    "id" : 52,
                    "_type" : "Callout",
                    "def" : {
                      "kind" : "remix",
                      "shape" : "text",
                      "style" : "basic",
                      "height" : 866.666666666253,
                      "width" : 1454.99999999977,
                      "word-wrap" : 1.0,
                      "horizontal-alignment" : "left",
                      "text" : "La casa está vacía, y el perro necesitado... Las llaves de su coche no están por ningún lado... Espero encontrarla en ese antro donde trabaja, y que sólo esté haciendo horas extras... \r\rQuizás esté siendo paranoica, pero estoy preocupada porque Sharon me habló de que en ese asilo ocurrían cosas raras, y cada vez con más frecuencia... No sabía explicarme muy bien lo que pensaba, pero la notaba tensa... \r\r¡Dios! Espero que estés bien, Sharon...",
                      "vertical-alignment" : "top",
                      "font" : {
                        "color-blue" : 1.0,
                        "color-green" : 1.0,
                        "color-red" : 1.0,
                        "size" : 96.0,
                        "tracking" : 0.0,
                        "name" : "Montserrat",
                        "weight" : "Regular"
                      },
                      "textAttributes" : {
                        "type" : "textAttributeList",
                        "keyframes" : [
                          {
                            "time" : 0,
                            "value" : [{"name":"fontItalic","rangeEnd":460,"rangeStart":0,"value":0,"valueType":"int"},{"name":"underline","rangeEnd":460,"rangeStart":0,"value":0,"valueType":"int"},{"name":"fontSize","rangeEnd":460,"rangeStart":0,"value":43,"valueType":"double"},{"name":"fgColor","rangeEnd":460,"rangeStart":0,"value":"(255,255,255,255)","valueType":"color"},{"name":"strikethrough","rangeEnd":460,"rangeStart":0,"value":0,"valueType":"int"},{"name":"fontName","rangeEnd":460,"rangeStart":0,"value":"Manrope","valueType":"string"},{"name":"fontWeight","rangeEnd":460,"rangeStart":0,"value":400,"valueType":"int"}],
                            "duration" : 0
                          }
                        ]
                      }
                    },
                    "attributes" : {
                      "autoRotateText" : true
                    },
                    "parameters" : {
                      "translation0" : {
                        "type" : "double",
                        "defaultValue" : 29.1666666666461,
                        "keyframes" : [
                          {
                            "time" : 21,
                            "value" : 29.1666666666461,
                            "duration" : 88
                          },
                          {
                            "time" : 236,
                            "value" : 29.1666666666461,
                            "duration" : 30
                          }
                        ]
                      },
                      "translation1" : {
                        "type" : "double",
                        "defaultValue" : -1.49999999954205,
                        "keyframes" : [
                          {
                            "time" : 21,
                            "value" : -1.49999999954205,
                            "duration" : 88
                          },
                          {
                            "time" : 236,
                            "value" : -1.49999999954205,
                            "duration" : 30
                          }
                        ]
                      },
                      "opacity" : {
                        "type" : "double",
                        "defaultValue" : 0.0,
                        "keyframes" : [
                          {
                            "time" : 21,
                            "value" : 1.0,
                            "duration" : 88
                          },
                          {
                            "time" : 236,
                            "value" : 0.0,
                            "duration" : 30
                          }
                        ]
                      }
                    },
                    "effects" : [
                        {
                          "effectName" : "DropShadow",
                          "category" : "categoryVisualEffects",
                          "parameters" : {
                            "angle" : {
                              "type" : "double",
                              "defaultValue" : 5.49778714378214,
                              "uiHints" : {
                                "userInterfaceType" : 0,
                                "unitType" : 0
                              },
                              "keyframes" : [
                                {
                                  "time" : 21,
                                  "value" : 5.49778714378214,
                                  "duration" : 88
                                },
                                {
                                  "time" : 236,
                                  "value" : 5.49778714378214,
                                  "duration" : 30
                                }
                              ]
                            },
                            "blur" : 10.0,
                            "color-alpha" : 1.0,
                            "color-blue" : 0.1216,
                            "color-green" : 0.1216,
                            "color-red" : 0.1216,
                            "enabled" : 1,
                            "offset" : 10.0,
                            "opacity" : 0.4
                          }
                        }
                    ],
                    "start" : 2136,
                    "duration" : 275,
                    "mediaStart" : 0,
                    "mediaDuration" : 275,
                    "scalar" : 1,
                    "metadata" : {
                      "WinSubProjectDisplayName" : "",
                      "clipSpeedAttribute" : false,
                      "default-HAlign" : "center",
                      "default-VAlign" : "center",
                      "default-opacity" : 1.0,
                      "default-text-attributes" : "[{\"name\":\"fontName\",\"rangeEnd\":458,\"rangeStart\":0,\"value\":\"Manrope\",\"valueType\":\"string\"},{\"name\":\"fontWeight\",\"rangeEnd\":458,\"rangeStart\":0,\"value\":400,\"valueType\":\"int\"},{\"name\":\"fgColor\",\"rangeEnd\":458,\"rangeStart\":0,\"value\":\"(255,255,255,255)\",\"valueType\":\"color\"},{\"name\":\"fontItalic\",\"rangeEnd\":458,\"rangeStart\":0,\"value\":0,\"valueType\":\"int\"},{\"name\":\"strikethrough\",\"rangeEnd\":458,\"rangeStart\":0,\"value\":0,\"valueType\":\"int\"},{\"name\":\"underline\",\"rangeEnd\":458,\"rangeStart\":0,\"value\":0,\"valueType\":\"int\"},{\"name\":\"fontSize\",\"rangeEnd\":458,\"rangeStart\":0,\"value\":43,\"valueType\":\"double\"}]",
                      "default-translation0" : 0.0,
                      "default-translation1" : 0.0
                    },
                    "animationTracks" : {
                      "visual" : [
                        {
                          "range" : [ 21, 88]
                        },
                        {
                          "range" : [ 236, 30]
                        }
                      ]
                    }
                  }
                ]
              },
              {
                "trackIndex" : 9,
                "medias" : [
                  {
                    "id" : 53,
                    "_type" : "AMFile",
                    "src" : 14,
                    "trackNumber" : 0,
                    "attributes" : {
                      "ident" : "sonidoLluviaConduciendo",
                      "sampleRate" : 44100,
                      "bitDepth" : 16,
                      "gain" : 1.0,
                      "mixToMono" : false
                    },
                      "channelNumber" : "0,1",
                    "parameters" : {
                      "volume" : {
                        "type" : "double",
                        "keyframes" : [
                          {
                            "time" : 0,
                            "value" : 1.0,
                            "duration" : 0
                          },
                          {
                            "time" : 1480,
                            "value" : 1.0,
                            "duration" : 0
                          },
                          {
                            "time" : 1481,
                            "value" : 0.0,
                            "duration" : 0
                          },
                          {
                            "time" : 1604,
                            "value" : 0.714285714285716,
                            "duration" : 0
                          },
                          {
                            "time" : 2655,
                            "value" : 0.686813186813187,
                            "duration" : 0
                          },
                          {
                            "time" : 2745,
                            "value" : 0.0,
                            "duration" : 0
                          },
                          {
                            "time" : 2746,
                            "value" : 0.686813186813187,
                            "duration" : 0
                          }
                        ]
                      }
                    },
                    "effects" : [

                    ],
                    "start" : 0,
                    "duration" : 1264,
                    "mediaStart" : 1481,
                    "mediaDuration" : 1264,
                    "scalar" : 1,
                    "metadata" : {
                      "WinSubProjectDisplayName" : "",
                      "clipSpeedAttribute" : false
                    },
                    "animationTracks" : {

                    }
                  }
                ]
              },
              {
                "trackIndex" : 10,
                "medias" : [
                ]
              },
              {
                "trackIndex" : 11,
                "medias" : [
                ]
              },
              {
                "trackIndex" : 12,
                "medias" : [
                ]
              },
              {
                "trackIndex" : 13,
                "medias" : [
                ]
              }
            ]
          }
        }
      ]
    },
    "trackAttributes" : [
      {
        "ident" : "",
        "audioMuted" : false,
        "videoHidden" : false,
        "metadata" : {
          "IsLocked" : "False",
          "WinTrackHeight" : "56"
        }
      },
      {
        "ident" : "",
        "audioMuted" : false,
        "videoHidden" : false,
        "metadata" : {
          "IsLocked" : "False",
          "WinTrackHeight" : "56"
        }
      },
      {
        "ident" : "",
        "audioMuted" : false,
        "videoHidden" : false,
        "metadata" : {
          "IsLocked" : "False",
          "WinTrackHeight" : "56"
        }
      },
      {
        "ident" : "",
        "audioMuted" : false,
        "videoHidden" : false,
        "metadata" : {
          "IsLocked" : "False",
          "WinTrackHeight" : "56"
        }
      },
      {
        "ident" : "",
        "audioMuted" : false,
        "videoHidden" : false,
        "metadata" : {
          "IsLocked" : "False",
          "WinTrackHeight" : "56"
        }
      },
      {
        "ident" : "",
        "audioMuted" : false,
        "videoHidden" : false,
        "metadata" : {
          "IsLocked" : "False",
          "WinTrackHeight" : "56"
        }
      },
      {
        "ident" : "",
        "audioMuted" : false,
        "videoHidden" : false,
        "metadata" : {
          "IsLocked" : "False",
          "WinTrackHeight" : "56"
        }
      },
      {
        "ident" : "",
        "audioMuted" : false,
        "videoHidden" : false,
        "metadata" : {
          "IsLocked" : "False",
          "WinTrackHeight" : "56"
        }
      },
      {
        "ident" : "",
        "audioMuted" : false,
        "videoHidden" : false,
        "metadata" : {
          "IsLocked" : "False",
          "WinTrackHeight" : "56"
        }
      },
      {
        "ident" : "",
        "audioMuted" : false,
        "videoHidden" : false,
        "metadata" : {
          "IsLocked" : "False",
          "WinTrackHeight" : "56"
        }
      },
      {
        "ident" : "",
        "audioMuted" : false,
        "videoHidden" : false,
        "metadata" : {
          "IsLocked" : "False",
          "WinTrackHeight" : "56"
        }
      },
      {
        "ident" : "",
        "audioMuted" : false,
        "videoHidden" : false,
        "metadata" : {
          "IsLocked" : "False",
          "WinTrackHeight" : "56"
        }
      },
      {
        "ident" : "",
        "audioMuted" : false,
        "videoHidden" : false,
        "metadata" : {
          "IsLocked" : "False",
          "WinTrackHeight" : "56"
        }
      },
      {
        "ident" : "",
        "audioMuted" : false,
        "videoHidden" : false,
        "metadata" : {
          "IsLocked" : "False",
          "WinTrackHeight" : "56"
        }
      }
    ],
    "captionAttributes" : {
      "enabled" : true,
      "fontName" : "Arial",
      "fontSize" : 64,
      "backgroundColor" : [ 0, 0, 0, 191],
      "foregroundColor" : [ 255, 255, 255, 255],
      "lang" : "en",
      "alignment" : 0,
      "defaultFontSize" : true,
      "opacity" : 0.5,
      "backgroundEnabled" : true,
      "backgroundOnlyAroundText" : true
    },
    "backgroundColor" : [ 0, 0, 0, 255]
  },
  "metadata" : {
    "AutoSaveFile" : "",
    "CanvasZoom" : 50,
    "Date" : "2021-05-19 04:17:05 ",
    "Fit" : 0,
    "IsAutoSave" : "0",
    "Language" : "ENU",
    "ProfileName" : "MP4 only (up to 1080p)",
    "ProjectDimensionsChanged" : "1",
    "Title" : "cinematicaInicial",
    "audioNarrationNotes" : "",
    "calloutStyle" : "Basic",
    "canvasDetached" : "False",
    "canvasPositionHeight" : "0",
    "canvasPositionLeft" : "0",
    "canvasPositionTop" : "0",
    "canvasPositionWidth" : "0"
  }
}
